<?xml version="1.0" encoding="utf-8"?>
<!-- Generator: Adobe Illustrator 27.1.1, SVG Export Plug-In . SVG Version: 6.00 Build 0)  -->
<svg version="1.1" id="Layer_1" xmlns="http://www.w3.org/2000/svg" xmlns:xlink="http://www.w3.org/1999/xlink" x="0px" y="0px"
	 viewBox="0 0 2039.41 877.19" style="enable-background:new 0 0 2039.41 877.19;" xml:space="preserve">
<style type="text/css">
	.st0{fill:#4CB748;}
	.st1{fill:#0097DC;}
	.st2{fill:#F58238;}
</style>
<g>
	<g>
		<g>
			<g>
				<path class="st0" d="M1451.81,599.24c-2.71,5.02-6.96,9.06-12.75,12.13c-5.79,3.07-13.08,4.61-21.89,4.61h-17.97v41.17h-21.5
					V549.93h39.48c8.3,0,15.36,1.44,21.2,4.3c5.84,2.87,10.21,6.81,13.13,11.83c2.92,5.02,4.38,10.7,4.38,17.05
					C1455.88,588.85,1454.52,594.22,1451.81,599.24z M1429.46,594.55c2.87-2.71,4.3-6.53,4.3-11.44c0-10.45-5.84-15.67-17.51-15.67
					h-17.05v31.18h17.05C1422.19,598.62,1426.59,597.27,1429.46,594.55z"/>
				<path class="st0" d="M1538.21,575.04c5.02,2.82,8.93,6.96,11.75,12.44c2.82,5.48,4.22,12.06,4.22,19.74v49.92h-21.5v-47
					c0-6.76-1.69-11.95-5.07-15.59c-3.38-3.63-7.99-5.45-13.82-5.45c-5.94,0-10.63,1.82-14.06,5.45c-3.43,3.64-5.15,8.83-5.15,15.59
					v47h-21.5V543.48h21.5v39.17c2.77-3.68,6.45-6.58,11.06-8.68c4.61-2.1,9.73-3.15,15.36-3.15
					C1527.46,570.82,1533.19,572.23,1538.21,575.04z"/>
				<path class="st0" d="M1576.23,591.4c3.43-6.65,8.09-11.77,13.98-15.36c5.89-3.58,12.47-5.38,19.74-5.38
					c6.35,0,11.9,1.28,16.67,3.84c4.76,2.56,8.58,5.79,11.44,9.68v-12.14h21.66v85.1h-21.66V644.7c-2.76,3.99-6.58,7.3-11.44,9.91
					c-4.86,2.61-10.47,3.92-16.82,3.92c-7.17,0-13.7-1.84-19.58-5.53c-5.89-3.69-10.55-8.88-13.98-15.59
					c-3.43-6.7-5.15-14.41-5.15-23.12C1571.08,605.69,1572.8,598.06,1576.23,591.4z M1634.99,601.16c-2.05-3.73-4.82-6.61-8.29-8.6
					c-3.48-2-7.22-2.99-11.21-2.99c-4,0-7.68,0.97-11.06,2.92c-3.38,1.95-6.12,4.79-8.22,8.53c-2.1,3.74-3.15,8.17-3.15,13.29
					c0,5.12,1.05,9.6,3.15,13.44c2.1,3.84,4.86,6.78,8.29,8.83c3.43,2.05,7.09,3.07,10.98,3.07c3.99,0,7.73-1,11.21-3
					c3.48-2,6.24-4.86,8.29-8.6c2.05-3.74,3.07-8.22,3.07-13.44S1637.03,604.9,1634.99,601.16z"/>
				<path class="st0" d="M1715.09,574.66c4.45-2.56,9.55-3.84,15.28-3.84v22.58h-5.68c-6.76,0-11.85,1.59-15.28,4.76
					c-3.43,3.18-5.15,8.7-5.15,16.59v42.39h-21.5v-85.1h21.5v13.21C1707.03,580.75,1710.64,577.22,1715.09,574.66z"/>
				<path class="st0" d="M1877.76,580.42c6.4,6.4,9.6,15.34,9.6,26.81v49.92h-21.51v-47c0-6.65-1.69-11.75-5.07-15.28
					c-3.38-3.53-7.99-5.3-13.82-5.3c-5.84,0-10.47,1.77-13.9,5.3c-3.43,3.53-5.14,8.63-5.14,15.28v47h-21.51v-47
					c0-6.65-1.69-11.75-5.07-15.28c-3.38-3.53-7.99-5.3-13.82-5.3c-5.94,0-10.63,1.77-14.05,5.3c-3.43,3.53-5.15,8.63-5.15,15.28v47
					h-21.5v-85.1h21.5v10.29c2.76-3.58,6.32-6.4,10.68-8.45c4.35-2.05,9.14-3.07,14.36-3.07c6.65,0,12.6,1.41,17.82,4.23
					c5.22,2.82,9.27,6.83,12.14,12.06c2.76-4.91,6.78-8.85,12.06-11.83c5.27-2.97,10.98-4.46,17.13-4.46
					C1862.94,570.82,1871.36,574.02,1877.76,580.42z"/>
				<path class="st0" d="M1909.4,591.4c3.43-6.65,8.09-11.77,13.98-15.36c5.89-3.58,12.47-5.38,19.74-5.38
					c6.35,0,11.9,1.28,16.67,3.84c4.76,2.56,8.58,5.79,11.44,9.68v-12.14h21.66v85.1h-21.66V644.7c-2.76,3.99-6.58,7.3-11.44,9.91
					c-4.86,2.61-10.47,3.92-16.82,3.92c-7.17,0-13.7-1.84-19.58-5.53c-5.89-3.69-10.55-8.88-13.98-15.59
					c-3.43-6.7-5.15-14.41-5.15-23.12C1904.25,605.69,1905.97,598.06,1909.4,591.4z M1968.16,601.16c-2.05-3.73-4.82-6.61-8.29-8.6
					c-3.48-2-7.22-2.99-11.21-2.99c-4,0-7.68,0.97-11.06,2.92c-3.38,1.95-6.12,4.79-8.22,8.53c-2.1,3.74-3.15,8.17-3.15,13.29
					c0,5.12,1.05,9.6,3.15,13.44c2.1,3.84,4.86,6.78,8.29,8.83c3.43,2.05,7.09,3.07,10.98,3.07c3.99,0,7.73-1,11.21-3
					c3.48-2,6.24-4.86,8.29-8.6c2.05-3.74,3.07-8.22,3.07-13.44S1970.2,604.9,1968.16,601.16z"/>
			</g>
		</g>
		<rect x="80.64" y="571.43" class="st0" width="1236.06" height="59.14"/>
	</g>
	<g>
		<g>
			<path class="st0" d="M492.4,742.47v13.08h-21.53v67.73h-16.21v-67.73h-21.53v-13.08H492.4z"/>
			<path class="st0" d="M545.26,761.11c3.36-1.93,7.2-2.89,11.52-2.89v17.02h-4.28c-5.09,0-8.94,1.2-11.52,3.59
				c-2.59,2.39-3.88,6.56-3.88,12.5v31.95h-16.21v-64.14h16.21v9.96C539.18,765.7,541.9,763.04,545.26,761.11z"/>
			<path class="st0" d="M644.88,759.14v64.14h-16.32v-8.1c-2.08,2.78-4.81,4.96-8.16,6.54c-3.36,1.58-7,2.37-10.94,2.37
				c-5.02,0-9.46-1.06-13.32-3.18c-3.86-2.12-6.89-5.25-9.09-9.38c-2.2-4.13-3.3-9.05-3.3-14.76v-37.63h16.21v35.31
				c0,5.09,1.27,9.01,3.82,11.75c2.55,2.74,6.02,4.11,10.42,4.11c4.47,0,7.99-1.37,10.53-4.11s3.82-6.66,3.82-11.75v-35.31H644.88z"
				/>
			<path class="st0" d="M687.94,821.49c-4.17-1.89-7.47-4.46-9.9-7.7c-2.43-3.24-3.76-6.83-3.99-10.77h16.32
				c0.31,2.47,1.52,4.52,3.65,6.13c2.12,1.62,4.76,2.43,7.93,2.43c3.09,0,5.5-0.62,7.24-1.85c1.74-1.23,2.6-2.82,2.6-4.75
				c0-2.08-1.06-3.65-3.18-4.69c-2.12-1.04-5.5-2.18-10.13-3.42c-4.79-1.16-8.7-2.35-11.75-3.59c-3.05-1.23-5.67-3.13-7.87-5.67
				c-2.2-2.55-3.3-5.98-3.3-10.3c0-3.55,1.02-6.79,3.07-9.72c2.04-2.93,4.98-5.25,8.8-6.95c3.82-1.7,8.32-2.55,13.49-2.55
				c7.64,0,13.74,1.91,18.29,5.73c4.55,3.82,7.06,8.97,7.53,15.46h-15.51c-0.23-2.55-1.29-4.57-3.18-6.08
				c-1.89-1.5-4.42-2.26-7.58-2.26c-2.93,0-5.19,0.54-6.77,1.62c-1.58,1.08-2.37,2.59-2.37,4.52c0,2.16,1.08,3.8,3.24,4.92
				c2.16,1.12,5.52,2.26,10.07,3.41c4.63,1.16,8.45,2.36,11.46,3.59c3.01,1.23,5.61,3.15,7.82,5.73c2.2,2.59,3.34,6,3.42,10.25
				c0,3.71-1.02,7.02-3.07,9.96c-2.05,2.93-4.98,5.23-8.8,6.89c-3.82,1.66-8.28,2.49-13.37,2.49
				C696.82,824.32,692.11,823.38,687.94,821.49z"/>
			<path class="st0" d="M776.16,772.46v31.03c0,2.16,0.52,3.72,1.56,4.69c1.04,0.97,2.8,1.45,5.27,1.45h7.53v13.66h-10.19
				c-13.66,0-20.49-6.64-20.49-19.91v-30.91h-7.64v-13.31h7.64v-15.86h16.32v15.86h14.36v13.31H776.16z"/>
			<path class="st0" d="M878.04,796.07h-46.89c0.39,4.63,2.01,8.26,4.86,10.88c2.85,2.63,6.37,3.94,10.53,3.94
				c6.02,0,10.3-2.59,12.85-7.76h17.48c-1.85,6.18-5.4,11.25-10.65,15.22c-5.25,3.98-11.69,5.96-19.33,5.96
				c-6.18,0-11.71-1.37-16.61-4.11s-8.72-6.62-11.46-11.64c-2.74-5.02-4.11-10.8-4.11-17.37c0-6.64,1.35-12.46,4.05-17.48
				c2.7-5.02,6.48-8.88,11.35-11.58c4.86-2.7,10.46-4.05,16.79-4.05c6.1,0,11.56,1.31,16.38,3.94c4.82,2.62,8.57,6.35,11.23,11.17
				c2.66,4.83,3.99,10.36,3.99,16.61C878.5,792.14,878.35,794.22,878.04,796.07z M861.72,785.19c-0.08-4.17-1.58-7.5-4.52-10.01
				c-2.93-2.51-6.52-3.76-10.77-3.76c-4.01,0-7.39,1.22-10.13,3.65c-2.74,2.43-4.42,5.81-5.04,10.13H861.72z"/>
			<path class="st0" d="M906.69,773.73c2.59-5.02,6.12-8.88,10.59-11.58c4.47-2.7,9.45-4.05,14.93-4.05c4.17,0,8.14,0.91,11.92,2.72
				c3.78,1.81,6.79,4.23,9.03,7.24v-30.45h16.44v85.67h-16.44v-9.49c-2.01,3.17-4.82,5.71-8.45,7.64
				c-3.63,1.93-7.84,2.89-12.62,2.89c-5.4,0-10.34-1.39-14.82-4.17c-4.48-2.78-8.01-6.7-10.59-11.75
				c-2.59-5.05-3.88-10.86-3.88-17.42C902.81,784.5,904.11,778.75,906.69,773.73z M950.98,781.08c-1.54-2.82-3.63-4.98-6.25-6.48
				c-2.63-1.5-5.44-2.26-8.45-2.26s-5.79,0.73-8.34,2.2s-4.61,3.61-6.19,6.42c-1.58,2.82-2.37,6.16-2.37,10.01
				c0,3.86,0.79,7.24,2.37,10.13c1.58,2.89,3.67,5.11,6.25,6.66c2.58,1.54,5.34,2.31,8.28,2.31c3.01,0,5.83-0.75,8.45-2.26
				c2.62-1.5,4.71-3.66,6.25-6.48c1.54-2.82,2.32-6.19,2.32-10.13C953.29,787.27,952.52,783.9,950.98,781.08z"/>
			<path class="st0" d="M1019.86,806.26l-13.55,32.53h-10.42l7.53-32.53H1019.86z"/>
			<path class="st0" d="M1159.48,742.47v80.81h-16.21v-34.38h-34.62v34.38h-16.21v-80.81h16.21v33.23h34.62v-33.23H1159.48z"/>
			<path class="st0" d="M1251.29,796.07h-46.89c0.39,4.63,2.01,8.26,4.86,10.88c2.85,2.63,6.37,3.94,10.53,3.94
				c6.02,0,10.3-2.59,12.85-7.76h17.48c-1.85,6.18-5.4,11.25-10.65,15.22c-5.25,3.98-11.69,5.96-19.33,5.96
				c-6.18,0-11.71-1.37-16.61-4.11c-4.9-2.74-8.72-6.62-11.46-11.64c-2.74-5.02-4.11-10.8-4.11-17.37c0-6.64,1.35-12.46,4.05-17.48
				c2.7-5.02,6.48-8.88,11.35-11.58c4.86-2.7,10.46-4.05,16.79-4.05c6.1,0,11.56,1.31,16.38,3.94s8.57,6.35,11.23,11.17
				c2.66,4.83,3.99,10.36,3.99,16.61C1251.75,792.14,1251.6,794.22,1251.29,796.07z M1234.96,785.19c-0.08-4.17-1.58-7.5-4.52-10.01
				c-2.93-2.51-6.52-3.76-10.77-3.76c-4.01,0-7.39,1.22-10.13,3.65c-2.74,2.43-4.42,5.81-5.04,10.13H1234.96z"/>
			<path class="st0" d="M1279.94,773.73c2.59-5.02,6.1-8.88,10.53-11.58c4.44-2.7,9.4-4.05,14.88-4.05c4.78,0,8.97,0.97,12.56,2.89
				c3.59,1.93,6.46,4.36,8.63,7.29v-9.15h16.32v64.14h-16.32v-9.38c-2.08,3.01-4.96,5.5-8.63,7.47c-3.67,1.97-7.89,2.95-12.68,2.95
				c-5.4,0-10.32-1.39-14.76-4.17s-7.95-6.7-10.53-11.75c-2.59-5.05-3.88-10.86-3.88-17.42
				C1276.06,784.5,1277.35,778.75,1279.94,773.73z M1324.22,781.08c-1.54-2.82-3.63-4.98-6.25-6.48c-2.63-1.5-5.44-2.26-8.45-2.26
				s-5.79,0.73-8.34,2.2s-4.61,3.61-6.19,6.42c-1.58,2.82-2.37,6.16-2.37,10.01c0,3.86,0.79,7.24,2.37,10.13
				c1.58,2.89,3.67,5.11,6.25,6.66c2.58,1.54,5.34,2.31,8.28,2.31c3.01,0,5.83-0.75,8.45-2.26c2.62-1.5,4.71-3.66,6.25-6.48
				c1.54-2.82,2.32-6.19,2.32-10.13C1326.54,787.27,1325.77,783.9,1324.22,781.08z"/>
			<path class="st0" d="M1391.6,737.61v85.67h-16.21v-85.67H1391.6z"/>
			<path class="st0" d="M1443.12,772.46v31.03c0,2.16,0.52,3.72,1.56,4.69c1.04,0.97,2.8,1.45,5.27,1.45h7.53v13.66h-10.19
				c-13.66,0-20.49-6.64-20.49-19.91v-30.91h-7.64v-13.31h7.64v-15.86h16.32v15.86h14.36v13.31H1443.12z"/>
			<path class="st0" d="M1534.93,761.4c3.78,2.12,6.73,5.25,8.86,9.38c2.12,4.13,3.18,9.09,3.18,14.88v37.63h-16.21v-35.43
				c0-5.09-1.27-9.01-3.82-11.75c-2.55-2.74-6.02-4.11-10.42-4.11c-4.48,0-8.01,1.37-10.59,4.11c-2.59,2.74-3.88,6.66-3.88,11.75
				v35.43h-16.21v-85.67h16.21v29.52c2.08-2.78,4.86-4.96,8.34-6.54c3.47-1.58,7.33-2.37,11.58-2.37
				C1526.82,758.22,1531.14,759.28,1534.93,761.4z"/>
			<path class="st0" d="M1640.4,759.14l-39.71,94.47h-17.25l13.89-31.95l-25.7-62.52h18.18l16.56,44.8l16.79-44.8H1640.4z"/>
		</g>
	</g>
	<g>
		<g>
			<path class="st1" d="M715.27,202.78v39.7c-14.68-16.02-28.58-27.69-41.71-35.04c-13.12-7.33-27.92-11.01-44.36-11.01
				c-34.48,0-64.29,14.63-89.41,43.87c-25.14,29.26-37.71,64.35-37.71,105.26c0,41.37,11.79,76.52,35.37,105.43
				c23.58,28.92,52.16,43.38,85.75,43.38c20.02,0,36.81-4.29,50.37-12.84c13.57-8.57,27.03-22.42,40.37-41.54h1.34v49.04h85.41
				V202.78H715.27z M695.25,396.45c-12.01,13.46-26.47,20.19-43.36,20.19c-17.59,0-31.76-5.84-42.54-17.52
				c-10.8-11.67-16.18-27.08-16.18-46.2c0-20.46,5.66-37.42,17.01-50.88c11.35-13.46,25.47-20.19,42.37-20.19
				c16.45,0,30.69,6.52,42.7,19.51c12.01,13.01,18.01,28.43,18.01,46.22C713.27,366.72,707.26,383,695.25,396.45z"/>
			<path class="st1" d="M1289.38,227.98c-18.01-21.47-40.04-32.2-66.05-32.2c-14.7,0-30.53,4.83-47.55,14.51
				c-17.03,9.68-34.43,25.86-52.22,48.55c-10.22-23.58-23.02-39.98-38.36-49.21c-15.34-9.24-29.58-13.85-42.71-13.85
				c-8.23,0-17.4,1.62-27.52,4.83c-10.12,3.23-18.8,7.47-26.03,12.69c-7.23,5.22-14.73,11.62-22.52,19.17
				c-7.77,7.57-13.68,12.69-17.67,15.36v-45.71h-86.08v286.93h86.08V338.56c0-17.56,5.34-32.63,16.01-45.2
				c10.68-12.57,23.36-18.85,38.04-18.85c12.45,0,23.08,5.72,31.86,17.18c8.79,11.45,13.18,25.52,13.18,42.2v155.14h84.75V335.89
				c0-16.89,5.32-31.47,16.01-43.7c10.68-12.23,23.36-18.36,38.04-18.36c12.23,0,22.69,5.41,31.37,16.19
				c8.68,10.78,13,24.07,13,39.86v159.16h85.43V307.21C1316.41,275.85,1307.4,249.44,1289.38,227.98z"/>
			<rect x="1377.65" y="202.11" class="st1" width="85.41" height="286.93"/>
			<path class="st1" d="M1667.27,198.1c-9.56,0-19.95,4.17-31.18,12.52c-11.24,8.34-21.08,19.63-29.53,33.87h-1.34v-42.37h-85.4
				v286.93h86.74V361.26c0-22.23,4.83-39.53,14.51-51.88c9.68-12.33,23.31-18.51,40.88-18.51c6.89,0,13.9,0.66,21.01,1.99v-93.41
				C1678.29,198.56,1673.05,198.1,1667.27,198.1z"/>
			<path class="st1" d="M1907.52,202.78v39.7c-14.68-16.02-28.58-27.69-41.69-35.04c-13.13-7.33-27.92-11.01-44.38-11.01
				c-34.48,0-64.29,14.63-89.41,43.87c-25.14,29.26-37.7,64.35-37.7,105.26c0,41.37,11.77,76.52,35.37,105.43
				c23.56,28.92,52.16,43.38,85.74,43.38c20.02,0,36.81-4.29,50.39-12.84c13.56-8.57,27.01-22.42,40.37-41.54h1.33v49.04h85.41
				V202.78H1907.52z M1887.49,396.45c-12.01,13.46-26.47,20.19-43.36,20.19c-17.57,0-31.76-5.84-42.54-17.52
				c-10.79-11.67-16.18-27.08-16.18-46.2c0-20.46,5.66-37.42,17.01-50.88s25.47-20.19,42.37-20.19c16.45,0,30.69,6.52,42.7,19.51
				c12.03,13.01,18.03,28.43,18.03,46.22C1905.53,366.72,1899.52,383,1887.49,396.45z"/>
			<g>
				<path class="st1" d="M417.84,111.36c-38.92-40.26-90.31-60.38-154.14-60.38H114.22l82.73,82.77l34.92-0.03
					c32.82,0,54.55,3.94,77.36,11.83c22.8,7.9,40.22,22.91,52.22,45.05c12.02,22.12,18.01,47.54,18.01,76.24
					c0,49.38-12.46,84.64-37.36,105.76c-24.91,21.15-56.72,31.71-95.74,31.71h-47.38l-84.75,84.73H255.7
					c66.72,0,120.16-19.9,160.3-59.72c40.16-39.82,60.22-92.75,60.22-158.81C476.21,204.67,456.75,151.62,417.84,111.36z"/>
			</g>
			<path class="st2" d="M1366.9,95.03c0-14.52,5.23-27.03,15.7-37.53c10.47-10.5,23.05-15.75,37.75-15.75
				c14.7,0,27.28,5.25,37.75,15.75c10.47,10.5,15.7,23.01,15.7,37.53c0,14.75-5.24,27.37-15.7,37.87
				c-10.47,10.5-23.05,15.75-37.75,15.75c-14.7,0-27.28-5.25-37.75-15.75C1372.13,122.4,1366.9,109.77,1366.9,95.03z"/>
		</g>
		<path class="st2" d="M178.42,344.45c-0.03,7.41-0.18,14.82-0.04,22.23c0.05,2.56,1.28,4.81,3.26,6.65
			c5.19,4.83,11.33,8.03,17.96,10.23c6.31,2.1,12.77,3.75,19.13,5.7c3.75,1.15,7.31,2.74,9.49,6.24c0.5,0.8,0.72,2.06,0.45,2.93
			c-0.14,0.46-1.58,0.74-2.44,0.74c-36.71,0.03-73.42,0.03-110.12,0c-0.84,0-2.24-0.29-2.4-0.77c-0.28-0.85-0.07-2.09,0.39-2.91
			c1.58-2.83,4.27-4.44,7.21-5.43c4.41-1.49,8.89-2.75,13.37-4.02c8.37-2.36,16.5-5.24,23.62-10.46c4.1-3.01,6.48-6.69,6.33-11.97
			c-0.23-8.03-0.22-16.07-0.33-24.1c-0.01-0.37-0.16-0.74-0.27-1.24c-5.06,0.76-9.87,1.9-14.13,4.73
			c-6.85,4.56-8.69,10.88-5.36,18.42c0.81,1.83,1.78,3.6,2.36,5.5c0.28,0.93,0.19,2.64-0.37,3c-0.77,0.5-2.36,0.44-3.24-0.04
			c-6.94-3.77-11.12-10.42-10.89-18.29c0.27-9.15,4.51-16.33,11.77-21.77c5.11-3.83,11-5.95,17.17-7.31
			c1.59-0.35,2.31-0.92,2.24-2.74c-0.26-6.15-0.32-12.31-0.47-18.46c-0.16-6.56-0.35-13.12-0.47-19.68
			c-0.03-1.44-0.43-2.11-2.05-2.27c-3.38-0.34-6.73-0.99-10.09-1.49c-13.29-1.96-26.32-4.92-38.92-9.65
			c-18.04-6.77-34.22-16.42-46.92-31.16c-15.76-18.3-21.12-39.63-16.68-63.15c3.68-19.46,14.41-34.56,31.04-45.34
			c17.41-11.29,36.5-14.45,56.78-11.15c6.51,1.06,12.93,2.62,19.43,3.72c8.22,1.4,16.06,3.84,22.37,9.43
			c4.28,3.79,7.97,8.25,11.81,12.51c2.41,2.68,4.8,5.42,6.87,8.36c3.13,4.47,0.98,9.66-4.25,10.53c-1.42,0.24-2.95,0.14-4.39-0.08
			c-7.97-1.23-15.93-2.54-23.89-3.84c-6.77-1.1-13.13-3.26-18.12-8.17c-2.71-2.66-5.05-5.71-7.44-8.67
			c-1.89-2.33-4.21-3.85-7.15-4.46c-7.65-1.58-15.26-1.28-22.87,0.38c-27.02,5.87-45.02,29.99-41.65,57.72
			c1.75,14.44,8.06,26.42,18.78,36.1c9.66,8.73,21.07,14.47,33.22,18.85c11.39,4.1,23.19,6.5,35.11,8.39
			c2.67,0.42,5.34,0.82,7.83,1.2c0-5.88,0.04-11.55-0.06-17.23c-0.01-0.48-0.85-1.26-1.41-1.37c-3.78-0.79-7.63-1.3-11.39-2.16
			c-17.22-3.93-32.71-11.44-46.11-22.99c-8.02-6.91-14.92-14.81-19.22-24.63c-1.53-3.48-2.49-7.2-3.84-11.18c1.41,0,2.14,0,2.86,0
			c59.01,0,118.03,0,177.04,0c0.54,0,1.07,0.03,1.61,0c1.07-0.06,1.48,0.4,1.25,1.46c-0.33,1.56-0.54,3.16-0.97,4.7
			c-2.62,9.49-8.17,17.22-14.95,24.07c-17.44,17.62-38.96,26.91-63.24,30.34c-1.44,0.2-1.89,0.6-1.93,2.06
			c-0.16,6.47-0.43,12.94-0.72,19.41c-0.05,1.07,0.3,1.56,1.32,1.82c1.54,0.39,3.07,0.89,4.58,1.39c7.32,2.45,14.29,5.6,20.3,10.57
			c7.03,5.81,10.96,13.28,11.99,22.34c0.95,8.29-0.52,15.98-5.51,22.75c-5.07,6.87-12.06,11.07-20.17,13.34
			c-4.6,1.29-9.32,2.12-14.47,3.26C178.42,339.65,178.43,342.05,178.42,344.45z M179.01,318.42c6.35-1.11,12.27-2.61,16.97-6.93
			c5.7-5.24,5.89-13.53,0.38-19.27c-4.28-4.46-9.77-6.86-15.65-8.43c-0.17-0.05-0.37,0.04-0.71,0.08
			C179.67,295.34,179.34,306.8,179.01,318.42z M170.77,140.35c-0.17-0.61-0.35-1.51-0.79-1.7c-1.07-0.48-2.29-0.84-3.44-0.83
			c-0.5,0.01-1.5,1.26-1.37,1.6c0.41,1.09,1.04,2.39,1.97,2.93c1.24,0.73,2.86,0.83,4.36,1.21
			C171.26,142.48,171.06,141.4,170.77,140.35z"/>
	</g>
</g>
</svg>
